<?xml version="1.0" standalone="no"?>
<!DOCTYPE svg PUBLIC "-//W3C//DTD SVG 20010904//EN"
 "http://www.w3.org/TR/2001/REC-SVG-20010904/DTD/svg10.dtd">
<svg version="1.0" xmlns="http://www.w3.org/2000/svg"
 width="2048.000000pt" height="2048.000000pt" viewBox="0 0 2048.000000 2048.000000"
 preserveAspectRatio="xMidYMid meet">
<metadata>
Created by potrace 1.11, written by Peter Selinger 2001-2013
</metadata>
<g transform="translate(0.000000,2048.000000) scale(0.100000,-0.100000)"
fill="#000000" stroke="none">
<path d="M8893 20435 c-14 -15 -117 -249 -519 -1174 l-254 -583 -100 -462
c-208 -953 -272 -1197 -406 -1549 -83 -215 -149 -417 -163 -493 -23 -126 -52
-316 -49 -319 2 -1 975 -7 2163 -14 1188 -6 2484 -14 2881 -18 l721 -6 6 23
c6 24 -17 242 -34 319 -23 103 -74 266 -139 436 -161 429 -220 657 -445 1719
l-75 351 -174 350 c-568 1137 -723 1432 -742 1412 -2 -1 -53 -302 -114 -667
-150 -906 -175 -1033 -221 -1123 -29 -56 -125 -183 -144 -191 -33 -12 -136 -5
-403 29 -346 44 -421 44 -782 0 -318 -39 -366 -42 -397 -20 -36 25 -128 166
-156 240 -44 116 -92 298 -193 735 -52 228 -125 541 -161 695 -36 154 -68 290
-71 303 -5 25 -12 27 -29 7z m758 -3106 c105 -67 151 -146 157 -271 4 -80 2
-93 -22 -142 -30 -61 -103 -134 -167 -166 -66 -34 -154 -38 -209 -10 -59 30
-146 114 -181 175 -40 69 -41 174 -3 255 84 181 278 254 425 159z m1726 8
c232 -118 225 -471 -12 -583 -70 -33 -180 -33 -250 0 -60 28 -129 100 -158
164 -31 71 -29 179 6 254 77 169 261 242 414 165z"/>
<path d="M7366 15469 c-3 -8 -7 -273 -8 -589 -2 -396 -7 -583 -15 -600 -9 -22
-30 -30 -189 -72 -360 -95 -573 -151 -1279 -332 -958 -246 -3691 -949 -3830
-986 -60 -16 -243 -63 -405 -105 -1111 -287 -1402 -366 -1407 -381 -2 -7 -174
-1409 -209 -1700 -7 -57 1 -94 19 -94 7 -1 91 -43 187 -96 738 -400 1422 -671
2215 -878 232 -61 313 -90 395 -145 63 -41 222 -167 495 -391 683 -559 1393
-1018 2185 -1414 490 -244 867 -398 1420 -581 96 -32 188 -64 203 -72 36 -18
47 -42 182 -413 124 -342 217 -578 305 -775 148 -331 156 -362 220 -800 52
-361 96 -581 171 -857 163 -606 410 -1165 746 -1690 135 -211 237 -349 571
-772 l82 -104 10 -149 c13 -198 12 -428 -1 -652 -12 -194 -19 -231 -83 -404
-33 -89 -45 -147 -31 -147 15 0 81 42 329 205 278 183 539 344 609 375 40 18
42 18 81 -2 23 -12 190 -116 371 -233 388 -249 527 -335 544 -335 14 0 8 28
-31 140 -16 47 -38 111 -49 143 -33 100 -42 264 -37 673 l4 382 224 298 c333
442 509 713 698 1074 250 478 446 1038 556 1590 52 259 107 626 126 841 12
135 30 189 145 429 112 234 215 478 325 775 153 415 129 365 196 401 32 18
192 78 355 133 529 179 917 344 1414 600 746 385 1380 805 2085 1382 379 310
489 388 578 408 26 6 158 35 294 66 492 111 920 250 1356 442 189 82 569 271
717 356 72 40 160 90 197 110 l67 37 7 56 c11 88 -3 621 -20 804 -42 436 -97
902 -112 952 -3 9 -19 21 -37 27 -49 16 -1174 311 -2627 690 -3424 892 -3892
1015 -4131 1080 -140 39 -267 75 -282 80 l-27 11 0 595 0 595 -857 0 c-472 0
-1229 5 -1682 10 -453 5 -1388 12 -2077 16 -1074 6 -1254 5 -1258 -7z m3144
-1275 c505 -58 699 -102 1009 -231 337 -139 564 -264 781 -431 408 -312 603
-523 903 -973 164 -247 279 -494 401 -861 79 -238 110 -395 157 -813 27 -238
22 -466 -15 -760 -47 -369 -77 -509 -162 -741 -164 -454 -367 -820 -649 -1172
-146 -182 -290 -325 -484 -479 l-163 -130 -432 -6 c-237 -4 -1133 -7 -1991 -7
l-1560 0 -160 127 c-488 385 -838 873 -1098 1528 -125 314 -163 463 -207 795
-54 416 -59 541 -35 778 57 554 98 722 296 1214 119 297 218 471 429 753 202
273 381 458 638 663 308 246 469 340 862 504 331 139 505 179 1065 247 113 14
271 12 415 -5z"/>
<path d="M8262 11154 c-29 -20 -38 -57 -73 -294 -42 -291 -49 -328 -67 -342
-13 -11 -15 -10 -9 5 4 9 2 17 -4 17 -6 0 -8 7 -5 16 3 9 3 21 -1 27 -5 7 -9
21 -10 32 -14 155 -71 474 -91 509 -14 24 -26 32 -53 34 -62 5 -62 4 -24 -303
77 -608 121 -903 138 -924 15 -17 115 -10 128 10 5 8 9 25 9 38 0 28 114 871
135 1006 16 100 18 144 7 161 -13 20 -57 24 -80 8z"/>
<path d="M9593 11142 c-8 -30 -10 -1179 -3 -1202 10 -27 21 -40 31 -35 5 4 9
1 9 -5 0 -16 53 -8 56 8 1 7 0 8 -3 2 -2 -5 -10 -10 -16 -10 -7 1 -1 10 13 21
24 20 24 22 31 257 4 130 10 247 14 260 7 22 14 25 90 37 74 12 133 78 149
167 11 60 8 310 -5 367 -7 36 -22 66 -45 91 -40 44 -80 56 -221 64 l-93 6 -7
-28z m206 -133 c19 -7 36 -22 42 -36 5 -13 9 -90 9 -170 l0 -145 -32 -31 c-18
-17 -26 -27 -18 -22 8 4 12 5 8 0 -5 -5 -22 -10 -38 -12 -40 -4 -49 19 -57
156 -9 168 8 271 46 271 5 0 23 -5 40 -11z"/>
<path d="M10662 10561 c4 -636 7 -671 48 -671 43 0 48 27 58 337 8 243 11 250
75 232 27 -7 41 -18 48 -37 6 -15 17 -127 24 -250 9 -134 19 -233 27 -250 19
-39 44 -39 65 0 17 31 18 69 17 543 0 554 -1 569 -55 637 -37 46 -68 55 -202
61 l-108 4 3 -606z m168 459 c-12 -8 -10 -10 9 -10 14 0 33 -7 43 -17 16 -14
18 -34 18 -185 0 -166 0 -169 -25 -193 -15 -16 -36 -25 -54 -25 -28 0 -30 4
-41 53 -7 32 -11 111 -8 202 3 159 10 184 53 184 17 1 17 -1 5 -9z"/>
<path d="M8480 10540 l0 -620 105 0 c57 0 127 5 155 11 44 9 50 14 50 35 0 14
4 22 10 19 6 -3 10 -4 10 -1 0 2 -15 14 -34 25 -24 15 -50 21 -94 21 -59 0
-62 1 -69 28 -10 35 -10 326 0 373 l7 37 71 4 c60 3 74 8 90 27 47 58 3 111
-91 111 -38 0 -62 5 -70 14 -10 14 -29 238 -30 369 0 46 1 47 31 47 43 0 168
22 167 29 -3 25 4 41 15 36 6 -4 -3 7 -21 24 l-32 31 -135 0 -135 0 0 -620z"/>
<path d="M9125 11149 c-36 -21 -67 -53 -88 -94 -20 -36 -22 -55 -22 -210 0
-203 2 -209 125 -355 110 -131 125 -163 124 -270 -1 -106 -17 -158 -51 -166
-43 -11 -70 10 -87 67 -19 63 -31 79 -62 79 -40 0 -58 -40 -50 -112 12 -119
63 -163 188 -163 90 1 121 17 153 81 18 35 20 59 20 224 0 218 3 209 -115 336
-82 89 -120 152 -121 206 0 18 -4 42 -8 52 -6 16 4 92 23 176 2 11 14 14 42
12 48 -4 50 -7 73 -68 14 -35 26 -52 45 -59 46 -16 61 3 61 78 0 56 -4 71 -30
108 -45 63 -76 82 -142 86 -33 2 -67 -2 -78 -8z m88 -126 c-7 -2 -19 -2 -25 0
-7 3 -2 5 12 5 14 0 19 -2 13 -5z"/>
<path d="M10130 10525 l0 -635 129 0 c125 0 131 1 160 26 36 30 38 49 11 84
-16 22 -29 26 -92 30 l-72 5 -8 35 c-4 19 -10 105 -13 190 -8 191 -3 204 70
208 68 3 88 8 112 29 16 14 18 23 12 43 -9 24 -9 24 7 5 10 -12 15 -14 12 -5
-6 21 -48 39 -104 46 -27 3 -62 7 -79 10 l-30 4 2 182 c1 101 5 194 11 207 8
21 19 27 81 37 108 18 136 54 86 108 -24 26 -26 26 -160 26 l-135 0 0 -635z"/>
<path d="M11183 11150 c-52 -21 -33 -84 36 -119 21 -11 42 -28 47 -38 4 -10
11 -223 15 -473 4 -250 10 -488 14 -528 11 -110 45 -132 92 -61 l27 42 8 441
c7 384 13 515 30 601 2 11 19 27 36 35 27 13 32 20 32 53 0 31 -4 39 -26 47
-31 12 -281 12 -311 0z"/>
<path d="M11755 11128 c-33 -22 -57 -49 -75 -83 l-25 -49 -3 -393 c-2 -219 1
-439 7 -496 10 -101 10 -102 47 -135 21 -18 61 -44 90 -58 58 -28 53 -29 142
22 32 18 101 129 88 142 -3 3 0 12 7 20 16 20 23 623 9 775 -18 186 -76 276
-186 285 -45 3 -57 0 -101 -30z m122 -120 c21 -26 25 -101 24 -393 -2 -346
-13 -516 -36 -551 -18 -28 -49 -31 -61 -6 -10 20 -18 827 -9 889 9 63 54 96
82 61z"/>
<path d="M12259 11128 c-17 -43 -25 -942 -11 -1101 10 -107 21 -137 49 -137
33 0 45 68 57 332 l11 259 48 -208 c59 -251 81 -322 108 -357 20 -26 53 -35
63 -17 16 25 26 245 32 701 l6 505 -22 28 c-12 16 -31 27 -45 27 -37 0 -47
-52 -59 -315 l-11 -240 -34 150 c-38 170 -85 334 -107 377 -11 21 -22 28 -43
28 -23 0 -32 -6 -42 -32z"/>
<path d="M11480 11034 c-17 -9 -20 -14 -9 -14 9 0 22 7 29 15 15 18 13 18 -20
-1z"/>
</g>
</svg>
