<?xml version="1.0" standalone="no"?>
<!DOCTYPE svg PUBLIC "-//W3C//DTD SVG 20010904//EN"
 "http://www.w3.org/TR/2001/REC-SVG-20010904/DTD/svg10.dtd">
<svg version="1.0" xmlns="http://www.w3.org/2000/svg"
 width="512.000000pt" height="512.000000pt" viewBox="0 0 512.000000 512.000000"
 preserveAspectRatio="xMidYMid meet">
<metadata>
Created by potrace 1.11, written by Peter Selinger 2001-2013
</metadata>
<g transform="translate(0.000000,512.000000) scale(0.100000,-0.100000)"
fill="#000000" stroke="none">
<path d="M2535 4700 c-3 -5 -1 -10 4 -10 6 0 11 5 11 10 0 6 -2 10 -4 10 -3 0
-8 -4 -11 -10z"/>
<path d="M3025 4650 c-3 -5 -1 -10 4 -10 6 0 11 5 11 10 0 6 -2 10 -4 10 -3 0
-8 -4 -11 -10z"/>
<path d="M3205 4550 c-3 -5 -1 -10 4 -10 6 0 11 5 11 10 0 6 -2 10 -4 10 -3 0
-8 -4 -11 -10z"/>
<path d="M3560 4486 c0 -8 -3 -21 -6 -30 -3 -9 -1 -16 6 -16 6 0 8 5 5 10 -3
6 -1 10 4 10 14 0 14 27 1 35 -5 3 -10 0 -10 -9z"/>
<path d="M3735 4490 c-7 -12 2 -30 16 -30 5 0 9 9 9 20 0 21 -15 27 -25 10z"/>
<path d="M3602 4460 c0 -19 2 -27 5 -17 2 9 2 25 0 35 -3 9 -5 1 -5 -18z"/>
<path d="M3662 4455 c0 -16 2 -22 5 -12 2 9 2 23 0 30 -3 6 -5 -1 -5 -18z"/>
<path d="M3506 4455 c4 -8 8 -15 10 -15 2 0 4 7 4 15 0 8 -4 15 -10 15 -5 0
-7 -7 -4 -15z"/>
<path d="M3860 4445 c0 -8 7 -15 16 -15 14 0 14 3 4 15 -7 8 -14 15 -16 15 -2
0 -4 -7 -4 -15z"/>
<path d="M3755 4300 c-3 -5 -1 -10 4 -10 6 0 11 5 11 10 0 6 -2 10 -4 10 -3 0
-8 -4 -11 -10z"/>
<path d="M3730 4280 c0 -13 18 -22 24 -11 3 5 -1 11 -9 15 -8 3 -15 1 -15 -4z"/>
<path d="M3351 4214 c0 -11 3 -14 6 -6 3 7 2 16 -1 19 -3 4 -6 -2 -5 -13z"/>
<path d="M3511 4214 c0 -11 3 -14 6 -6 3 7 2 16 -1 19 -3 4 -6 -2 -5 -13z"/>
<path d="M4219 4198 c4 -12 16 -23 25 -24 15 -2 15 1 -5 22 -28 30 -31 30 -20
2z"/>
<path d="M3860 4200 c0 -5 5 -10 10 -10 6 0 10 5 10 10 0 6 -4 10 -10 10 -5 0
-10 -4 -10 -10z"/>
<path d="M4280 4142 c0 -12 19 -26 26 -19 2 2 -2 10 -11 17 -9 8 -15 8 -15 2z"/>
<path d="M4328 4085 c2 -14 11 -25 19 -25 8 0 20 -15 28 -32 8 -18 15 -28 15
-23 0 6 7 -1 15 -15 8 -14 14 -19 15 -12 0 11 -87 132 -95 132 -1 0 0 -11 3
-25z"/>
<path d="M2282 4005 c-6 -22 -47 -175 -91 -340 -86 -322 -114 -428 -138 -515
-9 -30 -18 -65 -20 -77 -6 -24 -20 -28 -118 -38 -201 -20 -472 -79 -620 -135
-44 -16 -87 -30 -95 -30 -26 0 -433 -208 -515 -263 -89 -59 -158 -107 -162
-111 -5 -5 127 -107 209 -160 216 -141 479 -239 734 -275 40 -6 79 -18 96 -31
15 -11 51 -26 80 -34 29 -8 107 -28 173 -46 66 -17 150 -40 186 -51 l65 -20
119 -146 c103 -128 121 -155 136 -210 21 -79 52 -126 107 -163 73 -49 203 -62
289 -29 74 28 153 131 153 200 0 19 36 72 125 182 l125 155 68 7 c110 11 481
110 507 135 16 15 44 24 93 30 77 10 89 12 174 31 51 11 56 14 40 25 -11 9
-12 13 -4 14 14 0 179 64 256 99 74 34 257 145 306 186 23 19 54 44 68 55 22
18 23 22 12 50 -15 36 -51 64 -150 117 -41 22 -138 75 -215 119 -121 69 -158
85 -260 111 -66 18 -169 47 -230 66 -146 46 -311 83 -466 104 l-127 17 -20 81
c-19 76 -75 294 -141 545 -26 102 -66 251 -89 335 -7 24 -15 31 -39 33 -23 2
-33 -1 -36 -15 -4 -14 -5 -13 -6 5 -2 35 -21 26 -21 -10 0 -18 -12 -57 -25
-87 -24 -51 -25 -57 -12 -90 26 -66 29 -108 11 -173 -30 -106 -124 -178 -233
-178 -33 0 -49 7 -80 36 -58 52 -84 112 -84 193 1 36 8 81 16 100 13 32 13 37
-6 70 -12 19 -26 60 -32 91 -11 52 -13 55 -43 58 -18 2 -32 -1 -32 -7 0 -18
-18 -12 -23 7 -2 10 -8 2 -15 -23z m31 -448 c3 -8 -1 -14 -8 -14 -7 0 -11 6
-8 14 3 7 6 13 8 13 2 0 5 -6 8 -13z m555 -50 c28 -66 30 -156 5 -184 -25 -28
-108 -61 -200 -78 -102 -20 -101 -20 -68 15 16 17 35 30 42 30 8 0 11 5 8 10
-3 6 4 24 16 41 15 21 24 27 29 19 12 -20 32 0 27 26 -3 16 8 39 38 76 23 30
47 64 54 76 6 12 15 22 20 22 4 0 17 -24 29 -53z m-548 11 c0 -4 4 -7 8 -5 9
2 49 -45 166 -195 37 -49 64 -88 59 -88 -29 0 -157 31 -200 48 -87 35 -90 39
-96 105 -6 63 -1 91 14 81 5 -3 8 3 7 13 -3 39 2 52 22 50 11 -1 20 -5 20 -9z
m-272 -965 c-10 -2 -28 -2 -40 0 -13 2 -5 4 17 4 22 1 32 -1 23 -4z m481 -79
c-11 -43 -22 -80 -24 -82 -3 -3 -98 35 -158 62 -29 13 -28 14 58 45 48 17 99
38 113 45 15 8 28 13 29 12 2 -1 -6 -38 -18 -82z m606 79 c-33 -2 -63 -9 -66
-15 -5 -8 -17 -6 -41 5 -33 16 -32 17 67 15 68 -1 81 -3 40 -5z m-306 -43 l84
-33 -34 -14 c-19 -8 -59 -24 -89 -35 -101 -36 -100 -35 -100 -95 l0 -53 38 -2
c65 -3 84 1 137 27 29 14 55 25 58 25 3 0 34 13 69 29 34 16 64 28 66 26 8 -8
-41 -142 -65 -179 -20 -31 -27 -36 -35 -25 -8 11 -9 10 -4 -4 4 -12 -8 -31
-38 -61 -48 -48 -86 -73 -86 -56 0 5 -7 10 -15 10 -16 0 -16 -20 -1 -31 12 -9
-121 -57 -181 -64 -40 -5 -61 -2 -95 13 -62 28 -150 102 -143 121 3 9 3 12 -1
8 -13 -13 -44 26 -45 57 0 24 -2 27 -8 13 -6 -16 -9 -16 -18 -5 -13 16 -63
149 -63 166 0 17 21 10 119 -34 41 -19 80 -34 87 -34 9 0 12 -9 8 -29 -6 -26
-3 -28 33 -34 75 -13 131 -8 137 11 3 9 22 86 42 170 23 94 41 151 48 149 6
-3 49 -19 95 -37z m-886 -44 c5 -1 -101 -30 -235 -64 -134 -35 -263 -70 -288
-78 -42 -14 -53 -12 -245 31 -110 25 -279 63 -375 84 l-175 38 655 -4 c360 -3
659 -6 663 -7z m2582 -1 c-5 -2 -95 -22 -200 -44 -104 -22 -272 -58 -373 -80
l-184 -39 -264 71 c-145 39 -264 75 -264 79 0 4 201 9 448 11 246 1 537 3 647
4 110 1 196 0 190 -2z m-2425 -199 c0 -7 18 -40 40 -72 21 -32 38 -59 36 -61
-3 -3 -322 65 -346 74 -15 6 207 71 248 72 12 1 22 -5 22 -13z m1165 -44 l60
-18 -80 -16 c-44 -9 -81 -15 -83 -13 -5 5 28 65 36 65 4 0 34 -8 67 -18z
m-585 -667 c-13 -57 -49 -94 -90 -94 l-25 0 28 15 c18 10 27 23 27 39 0 21 44
75 61 75 4 0 3 -16 -1 -35z"/>
<path d="M2610 2170 c0 -13 5 -18 15 -14 8 4 15 12 15 20 0 8 -7 14 -15 14 -8
0 -15 -9 -15 -20z"/>
<path d="M2767 2059 c4 -13 8 -18 11 -10 2 7 -1 18 -6 23 -8 8 -9 4 -5 -13z"/>
<path d="M4330 3986 c0 -9 5 -16 10 -16 6 0 10 4 10 9 0 6 -4 13 -10 16 -5 3
-10 -1 -10 -9z"/>
<path d="M4000 3980 c0 -5 7 -10 16 -10 8 0 12 5 9 10 -3 6 -10 10 -16 10 -5
0 -9 -4 -9 -10z"/>
<path d="M4440 3951 c0 -4 9 -20 20 -34 13 -16 16 -28 10 -32 -12 -7 5 -28 33
-38 9 -3 21 -17 26 -30 5 -12 17 -29 27 -37 16 -14 16 -13 4 10 -19 36 -110
170 -115 170 -3 0 -5 -4 -5 -9z"/>
<path d="M4583 3730 c6 -16 15 -30 19 -30 4 0 8 -13 8 -30 0 -17 9 -39 21 -51
11 -11 22 -30 24 -41 3 -12 8 -24 12 -27 14 -10 30 -45 38 -81 8 -36 11 -44
39 -97 9 -18 14 -33 10 -33 -3 0 1 -10 9 -23 8 -13 17 -41 19 -63 1 -21 6 -41
10 -44 4 -3 9 -15 11 -25 2 -11 7 -27 10 -35 4 -8 14 -46 22 -85 69 -313 76
-687 18 -949 -8 -37 -16 -73 -17 -80 -33 -154 -111 -360 -219 -571 -40 -80
-199 -318 -251 -377 -283 -322 -531 -507 -896 -671 -164 -73 -422 -143 -620
-169 -129 -16 -520 -16 -605 1 -136 27 -215 44 -305 68 -97 25 -346 118 -410
153 -19 10 -55 28 -79 40 -48 24 -80 44 -211 129 -95 63 -90 58 -250 197 -63
56 -123 112 -132 125 -9 13 -38 47 -65 74 -26 28 -61 66 -76 85 -15 19 -23 26
-18 14 5 -11 48 -65 96 -120 335 -387 807 -661 1307 -759 621 -121 1243 4
1773 358 540 361 909 944 1012 1600 25 160 25 539 0 692 -38 227 -105 448
-202 661 -30 65 -103 194 -111 194 -1 0 3 -13 9 -30z"/>
<path d="M4466 3685 c-3 -8 -1 -15 4 -15 6 0 10 7 10 15 0 8 -2 15 -4 15 -2 0
-6 -7 -10 -15z"/>
<path d="M4465 3560 c-3 -5 -1 -10 4 -10 6 0 11 5 11 10 0 6 -2 10 -4 10 -3 0
-8 -4 -11 -10z"/>
<path d="M640 1211 c0 -5 7 -15 17 -22 15 -13 15 -12 4 9 -12 23 -21 28 -21
13z"/>
</g>
</svg>
